<svg aria-hidden="true" style="position: absolute; width: 0; height: 0; overflow: hidden;" version="1.1" xmlns="http://www.w3.org/2000/svg" xmlns:xlink="http://www.w3.org/1999/xlink">
<defs>
<symbol id="icon-clock" viewBox="0 0 32 32">
<path d="M16 0c8.837 0 16 7.163 16 16s-7.163 16-16 16c-8.837 0-16-7.163-16-16s7.163-16 16-16zM16 4.268c-6.48 0-11.732 5.252-11.732 11.732s5.252 11.732 11.732 11.732c3.112 0 6.096-1.235 8.297-3.436s3.436-5.185 3.436-8.297c0-6.48-5.252-11.732-11.732-11.732zM16 6.4c5.302 0 9.6 4.298 9.6 9.6s-4.298 9.6-9.6 9.6c-5.302 0-9.6-4.298-9.6-9.6s4.298-9.6 9.6-9.6zM14.934 11.732c-0.589 0-1.066 0.479-1.066 1.068v4.266c0 0.589 0.477 1.066 1.066 1.066h6.4c0.589-0 1.066-0.478 1.066-1.066s-0.478-1.066-1.066-1.066h-5.334v-3.199c0-0.589-0.477-1.068-1.066-1.068z"></path>
</symbol>

<symbol id="icon-path-open" viewBox="0 0 50 32">
<path stroke-linejoin="miter" stroke-linecap="butt" stroke-miterlimit="4" stroke-width="6.8571" d="M6.876 27.429l18.286-18.286 18.286 18.286"></path>
</symbol>

<symbol id="icon-path-closed" viewBox="0 0 46 32">
<path stroke-linejoin="miter" stroke-linecap="butt" stroke-miterlimit="4" stroke-width="6.8571" d="M3.493 4.571l18.286 18.286 18.286-18.286"></path>
</symbol>


<symbol id="icon-note" viewBox="0 0 28 32">
<path d="M28 6c0-1.105-0.895-2-2-2h-2v-2c0-1.105-0.895-2-2-2s-2 0.895-2 2v2h-4v-2c0-1.105-0.895-2-2-2s-2 0.895-2 2v2h-4v-2c0-1.105-0.895-2-2-2s-2 0.895-2 2v2h-2c-1.105 0-2 0.895-2 2v24c0 1.105 0.895 2 2 2h24c1.105 0 2-0.895 2-2v-24zM4 14v-2h20v2h-20zM4 18v2h20v-2h-20zM4 26v-2h20v2h-20z"></path>
</symbol>
<symbol id="icon-schedule" viewBox="0 0 32 32">
<path d="M22.667 0h4v2.667h2c1.834 0 3.333 1.5 3.333 3.333v22.667c0 1.834-1.5 3.333-3.333 3.333h-25.334c-1.833 0-3.333-1.5-3.333-3.333v-22.667c0-1.833 1.5-3.333 3.333-3.333h2.001v-2.667h4v2.667h13.333v-2.667zM25.334 17.333h-8v8h8v-8zM3.333 28.667h25.334v-17.667h-25.334v17.667z"></path>
</symbol>
<symbol id="icon-bell" viewBox="0 0 24 32">
<path d="M0 20c0 3.314 5.374 6 12 6s12-2.686 12-6c0-1.224-0.742-2.36-2-3.308v-2.692c0-4.13-2.508-7.674-6.082-9.2 0.24-1.177-0.062-2.399-0.821-3.329s-1.896-1.47-3.097-1.471c-1.201 0.001-2.338 0.541-3.097 1.471s-1.061 2.152-0.821 3.329c-3.576 1.526-6.082 5.070-6.082 9.2v2.692c-1.258 0.948-2 2.084-2 3.308zM15.968 27.68c-1.264 0.188-2.58 0.32-3.968 0.32s-2.702-0.132-3.968-0.32c-0.003 0.043-0.009 0.086-0.015 0.128-0.009 0.063-0.017 0.126-0.017 0.192 0 2.208 1.792 4 4 4s4-1.792 4-4c0-0.066-0.009-0.129-0.017-0.192-0.006-0.042-0.012-0.085-0.015-0.128z"></path>
</symbol>
<symbol id="icon-mobile-menu" viewBox="0 0 32 32">
<path stroke-linejoin="miter" stroke-linecap="round" stroke-miterlimit="10" stroke-width="2.2857" d="M1.143 8h29.714M1.143 16h29.714M1.143 24h29.714"></path>
</symbol>

<symbol id="icon-mobile-menu-button" viewBox="0 0 57 32">
<path d="M0 0h56.889v3.556h-56.889v-3.556z"></path>
<path d="M0 14.222h56.889v3.556h-56.889v-3.556z"></path>
<path d="M0 28.444h56.889v3.556h-56.889v-3.556z"></path>
</symbol>

<symbol id="icon-mobile-close" viewBox="0 0 32 32">
<path d="M1.81 0l28.963 28.963-1.81 1.81-28.963-28.963 1.81-1.81z"></path>
<path d="M0 28.963l28.963-28.963 1.81 1.81-28.963 28.963-1.81-1.81z"></path>
</symbol>

<symbol id="icon-snap" viewBox="0 0 96 32">
<path d="M10.117 22.93c-1.267 0-2.487-0.147-3.66-0.44s-2.223-0.727-3.15-1.3c-0.927-0.573-1.66-1.29-2.2-2.15s-0.81-1.863-0.81-3.010c0-0.053 0-0.117 0-0.19s0-0.13 0-0.17h6.16c0 0.040 0 0.083 0 0.13s0 0.097 0 0.15c0 0.773 0.343 1.34 1.030 1.7s1.617 0.54 2.79 0.54c0.613 0 1.203-0.063 1.77-0.19s1.033-0.333 1.4-0.62c0.367-0.287 0.55-0.65 0.55-1.090 0-0.707-0.39-1.207-1.17-1.5s-2.030-0.587-3.75-0.88c-0.973-0.16-1.96-0.387-2.96-0.68s-1.92-0.683-2.76-1.17-1.513-1.107-2.020-1.86c-0.507-0.753-0.76-1.67-0.76-2.75 0-1.44 0.437-2.653 1.31-3.64s2.037-1.733 3.49-2.24c1.453-0.507 3.053-0.76 4.8-0.76 1.667 0 3.22 0.277 4.66 0.83s2.607 1.347 3.5 2.38c0.893 1.033 1.34 2.277 1.34 3.73 0 0.027 0 0.067 0 0.12s0 0.107 0 0.16h-6.1c0-0.053 0-0.1 0-0.14s0-0.073 0-0.1c0-0.533-0.17-0.967-0.51-1.3s-0.77-0.583-1.29-0.75c-0.52-0.167-1.060-0.25-1.62-0.25-0.507 0-1.030 0.057-1.57 0.17s-0.997 0.3-1.37 0.56c-0.373 0.26-0.56 0.623-0.56 1.090 0 0.453 0.2 0.823 0.6 1.11s0.96 0.52 1.68 0.7c0.72 0.18 1.553 0.35 2.5 0.51 0.893 0.147 1.837 0.35 2.83 0.61s1.927 0.627 2.8 1.1c0.873 0.473 1.58 1.093 2.12 1.86s0.81 1.737 0.81 2.91c0 1.213-0.28 2.253-0.84 3.12s-1.317 1.57-2.27 2.11c-0.953 0.54-2.013 0.94-3.18 1.2s-2.363 0.39-3.59 0.39z"></path>
<path d="M38.262 13.43v-2.5c0-0.88-0.113-1.683-0.34-2.41s-0.633-1.31-1.22-1.75-1.433-0.66-2.54-0.66c-0.96 0-1.79 0.22-2.49 0.66s-1.237 1.053-1.61 1.84c-0.373 0.787-0.56 1.693-0.56 2.72v11.12h-6.2v-21.24h6.2v3.236c0.73-1.010 1.64-1.828 2.73-2.456 1.367-0.787 2.883-1.18 4.55-1.18 1.747 0 3.183 0.35 4.31 1.050s1.967 1.673 2.52 2.92c0.553 1.247 0.83 2.703 0.83 4.37v13.3h-6.18v-9.020zM29.502 11.33v-6.884c-0.185 0.256-0.358 0.524-0.52 0.804-0.8 1.387-1.2 3-1.2 4.84l1.72 1.24z"></path>
<path d="M51.616 22.15c1.207 0.493 2.583 0.74 4.13 0.74 1.32 0 2.55-0.17 3.69-0.51s2.127-0.827 2.96-1.46c0.294-0.224 0.56-0.462 0.797-0.717 0.055 0.216 0.12 0.432 0.194 0.647 0.133 0.387 0.297 0.727 0.49 1.020s0.337 0.487 0.43 0.58h6.1c-0.133-0.12-0.3-0.333-0.5-0.64s-0.367-0.693-0.5-1.16c-0.12-0.413-0.197-0.87-0.23-1.37s-0.050-1.023-0.050-1.57v-9.18c0-1.747-0.483-3.187-1.45-4.32s-2.243-1.983-3.83-2.55-3.313-0.85-5.18-0.85c-2 0-3.793 0.303-5.38 0.91s-2.843 1.497-3.77 2.67c-0.927 1.173-1.39 2.613-1.39 4.32h6.1c0-1.053 0.377-1.837 1.13-2.35s1.843-0.77 3.27-0.77c1.347 0 2.397 0.227 3.15 0.68s1.13 1.073 1.13 1.86v0.040c0 0.467-0.443 0.793-1.33 0.98s-2.497 0.393-4.83 0.62c-1.6 0.16-3.083 0.49-4.45 0.99s-2.463 1.223-3.29 2.17c-0.827 0.947-1.24 2.173-1.24 3.68 0 1.333 0.34 2.467 1.020 3.4s1.623 1.647 2.83 2.14zM60.136 17.72c-0.847 0.353-1.757 0.53-2.73 0.53-1.133 0-1.987-0.183-2.56-0.55s-0.86-0.917-0.86-1.65c0-0.773 0.337-1.323 1.010-1.65s1.69-0.557 3.050-0.69c1.147-0.12 2.297-0.283 3.45-0.49 0.532-0.095 1.036-0.203 1.51-0.322v0.172c0 1.227-0.267 2.22-0.8 2.98s-1.223 1.317-2.070 1.67zM63.006 12.898c0.553-0.139 1.066-0.295 1.54-0.468l-1.54-1.5v1.967z"></path>
<path d="M81.27 21.58c-0.721-0.463-1.368-1.010-1.94-1.64v11.25h-6.22v-29.98h6.22v2.445c0.572-0.604 1.219-1.125 1.94-1.565 1.4-0.853 2.94-1.28 4.62-1.28 1.72 0 3.327 0.423 4.82 1.27s2.703 2.083 3.63 3.71c0.927 1.627 1.39 3.607 1.39 5.94 0 2.44-0.453 4.493-1.36 6.16s-2.107 2.923-3.6 3.77c-1.493 0.847-3.12 1.27-4.88 1.27-1.68 0-3.22-0.45-4.62-1.35zM79.331 12.41l-2.68 0.060v0.32c0 1.907 0.42 3.623 1.26 5.15 0.407 0.741 0.881 1.407 1.42 2v-7.29c0 0.987 0.24 1.85 0.72 2.59s1.1 1.31 1.86 1.71c0.76 0.4 1.553 0.6 2.38 0.6 1.36 0 2.543-0.47 3.55-1.41s1.51-2.41 1.51-4.41c0-2-0.5-3.457-1.5-4.37s-2.187-1.37-3.56-1.37c-0.827 0-1.62 0.197-2.38 0.59s-1.38 0.95-1.86 1.67c-0.48 0.72-0.72 1.58-0.72 2.58v-7.175c-0.539 0.569-1.013 1.21-1.42 1.925-0.84 1.473-1.26 3.17-1.26 5.090l2.68 0.16v1.58z"></path>
</symbol>

<symbol id="icon-meet-logo" viewBox="0 0 137 32">
<path d="M15.457 22.932c0-4.208-3.411-7.619-7.619-7.619s-7.619 3.411-7.619 7.619c0 4.208 3.411 7.619 7.619 7.619s7.619-3.411 7.619-7.619zM86.814 9.828c-1.124-0.517-2.351-0.775-3.682-0.775s-2.575 0.246-3.734 0.74c-1.158 0.494-2.162 1.176-3.010 2.046s-1.52 1.898-2.013 3.085c-0.493 1.187-0.74 2.45-0.74 3.79s0.258 2.603 0.774 3.79 1.217 2.215 2.1 3.085c0.883 0.87 1.932 1.552 3.147 2.046s2.512 0.739 3.888 0.739c1.514 0 2.873-0.223 4.077-0.67s2.38-1.163 3.527-2.15l-3.682-3.35c-0.436 0.446-0.964 0.793-1.583 1.040s-1.307 0.369-2.064 0.369c-1.055 0-1.973-0.275-2.753-0.827s-1.353-1.264-1.72-2.134h12.972v-1.411c0-1.457-0.229-2.814-0.687-4.071s-1.095-2.333-1.909-3.226-1.784-1.599-2.908-2.116zM107.287 9.828c-1.124-0.517-2.353-0.775-3.683-0.775s-2.574 0.246-3.732 0.74c-1.158 0.494-2.163 1.176-3.012 2.046s-1.519 1.898-2.012 3.085c-0.493 1.187-0.74 2.45-0.74 3.79s0.258 2.603 0.774 3.79c0.516 1.187 1.215 2.215 2.098 3.085s1.933 1.552 3.149 2.046c1.216 0.494 2.512 0.739 3.888 0.739 1.514 0 2.873-0.223 4.077-0.67s2.38-1.163 3.527-2.15l-3.682-3.35c-0.436 0.446-0.964 0.793-1.583 1.040s-1.307 0.369-2.064 0.369c-1.055 0-1.973-0.275-2.753-0.827s-1.353-1.264-1.72-2.134h12.972v-1.411c0-1.457-0.229-2.814-0.688-4.071s-1.096-2.333-1.911-3.226c-0.814-0.893-1.782-1.599-2.906-2.116zM128.655 9.37h-5.094v-6.030l-5.573 1.235v4.795h-3.682v4.76h3.682v8.214c0 1.951 0.556 3.427 1.668 4.426s2.758 1.498 4.937 1.498c0.528 0 1.181-0.053 1.961-0.159s1.422-0.24 1.927-0.405v-4.619c-0.459 0.141-0.884 0.24-1.274 0.299s-0.802 0.089-1.238 0.089c-0.894 0-1.519-0.171-1.875-0.512s-0.534-0.923-0.534-1.746v-7.086h5.094v-4.76zM69.18 11.133c-1.319-1.41-3.011-2.116-5.076-2.116-1.193 0-2.294 0.223-3.303 0.67s-1.881 1.082-2.615 1.905c-0.619-0.799-1.394-1.429-2.323-1.887s-1.955-0.687-3.079-0.688c-0.849 0-1.657 0.13-2.426 0.388s-1.474 0.647-2.116 1.164v-1.199h-5.574v18.652h5.574v-12.763c0.344-0.447 0.763-0.781 1.256-1.005s1.049-0.335 1.668-0.335c0.894 0 1.611 0.31 2.15 0.933s0.808 1.44 0.808 2.451v10.719h5.574v-11.494c0-0.212-0.005-0.418-0.016-0.618s-0.029-0.394-0.052-0.582c0.367-0.447 0.803-0.793 1.308-1.040s1.067-0.369 1.686-0.369c0.894 0 1.611 0.31 2.15 0.933s0.808 1.44 0.808 2.451v10.719h5.574v-11.494c0-2.186-0.659-3.984-1.978-5.394zM80.655 14.483c0.665-0.517 1.456-0.777 2.374-0.777 0.894 0 1.68 0.271 2.357 0.811s1.165 1.259 1.463 2.152h-7.604c0.275-0.94 0.745-1.669 1.411-2.186zM101.128 14.483c0.665-0.517 1.456-0.777 2.374-0.777 0.894 0 1.68 0.271 2.357 0.811s1.165 1.259 1.463 2.152h-7.604c0.275-0.94 0.745-1.669 1.411-2.186zM30.695 7.694c0-4.208-3.411-7.619-7.619-7.619s-7.619 3.411-7.619 7.619c0 4.208 3.411 7.619 7.619 7.619s7.619-3.411 7.619-7.619zM135.586 7.407c-0.486 0.473-1.081 0.709-1.786 0.709s-1.303-0.236-1.796-0.709-0.738-1.068-0.738-1.787c0-0.706 0.246-1.298 0.738-1.777s1.091-0.719 1.796-0.719c0.705 0 1.3 0.24 1.786 0.719s0.728 1.072 0.728 1.777c0 0.719-0.243 1.315-0.728 1.787z"></path>
</symbol>
<symbol id="icon-maker-logo" viewBox="0 0 106 32">
<path d="M28.492 11.877c1.744 1.999 2.806 4.609 2.813 7.47 0.007 3.029-1.191 5.937-3.33 8.083s-5.042 3.351-8.071 3.354c-2.873 0.002-5.497-1.061-7.505-2.812 0.726 0.116 1.471 0.179 2.23 0.179 0.384 0 0.763-0.020 1.139-0.050 2.427 1.147 5.275 1.255 7.844 0.184 3.608-1.505 5.953-5.036 5.939-8.945-0.007-1.463-0.341-2.849-0.929-4.090 0.030-0.377 0.050-0.757 0.050-1.141 0-0.759-0.063-1.504-0.179-2.23zM19.903 9.718c3.85 0.007 7.17 2.266 8.718 5.53-0.551 6.846-6.007 12.301-12.854 12.851-0.981-0.464-1.893-1.096-2.69-1.89-2.768-2.76-3.598-6.917-2.104-10.529s5.021-5.966 8.93-5.963zM14.628 0.063c6.997 0 12.795 5.118 13.864 11.814-2.096-2.402-5.179-3.92-8.617-3.914-6.299 0.011-11.398 5.124-11.39 11.424 0.004 3.426 1.52 6.495 3.914 8.584-6.696-1.069-11.814-6.867-11.814-13.864 0-7.756 6.288-14.044 14.044-14.044zM66.803 10.314c1.004 0 1.896 0.155 2.675 0.464s1.369 0.843 1.769 1.601c0.225 0.421 0.359 0.842 0.401 1.264s0.062 0.892 0.062 1.411v6.951h-2.506v-1.398l-0.019 0.023c-0.446 0.522-0.919 0.915-1.419 1.18-0.642 0.34-1.456 0.511-2.439 0.511-0.814 0-1.505-0.156-2.070-0.469s-0.994-0.731-1.285-1.254c-0.291-0.523-0.436-1.101-0.436-1.733 0-0.526 0.080-1.007 0.241-1.442s0.423-0.82 0.785-1.154c0.362-0.333 0.848-0.613 1.459-0.838 0.421-0.154 0.924-0.291 1.506-0.41s1.243-0.234 1.98-0.343l0.451-0.066 0.926-0.139-0.020-0.148c-0.068-0.397-0.215-0.706-0.441-0.928-0.323-0.316-0.863-0.474-1.621-0.474-0.421 0-0.861 0.101-1.317 0.305s-0.775 0.566-0.958 1.085l-2.591-0.821c0.288-0.941 0.828-1.707 1.621-2.296s1.876-0.885 3.245-0.885zM91.195 10.314c1.193 0 2.208 0.281 3.044 0.842s1.454 1.352 1.854 2.37c0.4 1.018 0.542 2.216 0.422 3.592h-7.987l0.016 0.11c0.098 0.631 0.305 1.148 0.624 1.549 0.46 0.579 1.136 0.869 2.028 0.869 0.562 0 1.043-0.123 1.444-0.369s0.706-0.6 0.916-1.064l2.865 0.821c-0.428 1.039-1.104 1.847-2.028 2.423s-1.933 0.864-3.029 0.864c-1.165-0-2.192-0.251-3.080-0.753s-1.584-1.194-2.086-2.075c-0.502-0.881-0.752-1.891-0.752-3.029 0-1.243 0.246-2.324 0.738-3.244s1.169-1.635 2.032-2.144c0.864-0.509 1.857-0.764 2.98-0.764zM55.49 10.357c1.299 0 2.28 0.385 2.944 1.154s0.995 1.775 0.995 3.018v7.478h-2.865v-6.72c0-0.751-0.177-1.335-0.531-1.752s-0.844-0.627-1.469-0.628c-0.4 0-0.749 0.093-1.044 0.279s-0.525 0.446-0.69 0.78c-0.165 0.333-0.247 0.718-0.247 1.154v6.888h-2.864v-6.72c-0-0.751-0.178-1.335-0.532-1.752s-0.844-0.627-1.469-0.628c-0.597 0-1.077 0.206-1.439 0.616s-0.541 0.943-0.541 1.596v6.888h-2.886v-11.375h2.528v1.248l0.13-0.152c0.305-0.339 0.667-0.623 1.086-0.853 0.628-0.344 1.333-0.516 2.112-0.516 0.891 0 1.623 0.19 2.195 0.569l0.186 0.131c0.359 0.271 0.652 0.599 0.879 0.982l0.047 0.089c0.359-0.537 0.828-0.961 1.405-1.271 0.621-0.334 1.312-0.5 2.070-0.5zM77.357 16.108l3.854-5.478h3.54l-4.109 5.687 4.382 5.688h-3.729l-3.939-5.476v5.476h-2.929l0.021-15.166h2.908v9.269zM104.53 10.604c0.344-0.025 0.689-0.016 1.032 0.026v2.675c-0.316-0.098-0.684-0.132-1.101-0.1s-0.796 0.129-1.133 0.29c-0.337 0.154-0.621 0.36-0.852 0.616s-0.408 0.559-0.528 0.906c-0.119 0.347-0.179 0.739-0.179 1.174v5.814h-2.886v-11.375h2.529v1.832l0.044-0.080c0.082-0.14 0.173-0.275 0.271-0.404 0.246-0.323 0.548-0.591 0.906-0.801 0.274-0.168 0.572-0.3 0.895-0.395s0.657-0.154 1.001-0.179zM68.822 16.804c-0.455 0.077-0.847 0.145-1.176 0.204-0.527 0.095-0.952 0.181-1.275 0.259s-0.607 0.161-0.852 0.253c-0.281 0.112-0.508 0.233-0.68 0.363s-0.298 0.273-0.379 0.428c-0.081 0.154-0.121 0.327-0.121 0.516 0 0.26 0.065 0.483 0.195 0.669s0.314 0.328 0.553 0.426c0.239 0.098 0.524 0.147 0.854 0.147 0.526 0 0.971-0.093 1.332-0.279s0.65-0.399 0.864-0.637c0.214-0.238 0.359-0.439 0.436-0.6 0.147-0.309 0.234-0.669 0.259-1.080l0.013-0.239c0.008-0.153 0.014-0.295 0.018-0.426v-0.009l-0.039 0.006zM91.322 12.801c-0.976 0-1.694 0.297-2.154 0.89l-0.101 0.141c-0.196 0.294-0.343 0.648-0.441 1.062l-0.020 0.098h5.010l-0.016-0.119c-0.087-0.559-0.243-0.995-0.47-1.309-0.369-0.509-0.972-0.764-1.808-0.764z"></path>
</symbol>
<symbol id="icon-databiz" viewBox="0 0 174 32">
<path d="M37.669 29.713c-0.971 0.559-2.095 0.839-3.372 0.839-1.45 0-2.807-0.273-4.070-0.819s-2.378-1.302-3.342-2.267c-0.964-0.965-1.719-2.080-2.265-3.345s-0.818-2.623-0.818-4.074 0.273-2.809 0.818-4.074c0.545-1.265 1.3-2.38 2.265-3.345s2.078-1.721 3.342-2.267 2.62-0.819 4.070-0.819c1.277 0 2.401 0.276 3.372 0.829s1.776 1.281 2.414 2.187v-12.482h4.868v29.957h-4.868v-2.496c-0.639 0.892-1.443 1.618-2.414 2.177zM31.573 25.079c0.845 0.519 1.772 0.779 2.783 0.779 1.038 0 1.955-0.26 2.754-0.779s1.423-1.221 1.876-2.107c0.452-0.885 0.678-1.861 0.678-2.926 0-1.079-0.226-2.060-0.678-2.946s-1.081-1.588-1.886-2.107-1.719-0.779-2.743-0.779c-1.024 0-1.955 0.263-2.793 0.789s-1.51 1.228-2.015 2.107c-0.505 0.879-0.758 1.857-0.758 2.936s0.253 2.057 0.758 2.936 1.18 1.578 2.025 2.097zM59.297 30.551c-1.476 0-2.86-0.28-4.15-0.839s-2.428-1.331-3.412-2.317c-0.984-0.985-1.749-2.124-2.295-3.415s-0.818-2.676-0.818-4.154c0-1.425 0.259-2.763 0.778-4.014s1.25-2.35 2.195-3.295 2.035-1.684 3.272-2.217c1.237-0.533 2.567-0.799 3.991-0.799 1.33 0 2.517 0.293 3.561 0.879s1.932 1.331 2.664 2.237l-0.219-2.556h4.868v19.971h-4.888l-0.199-2.477c-0.559 0.892-1.287 1.614-2.185 2.167s-1.952 0.829-3.163 0.829zM56.674 25.099c0.858 0.506 1.779 0.759 2.763 0.759 1.064 0 1.989-0.273 2.773-0.819s1.38-1.275 1.786-2.187c0.406-0.912 0.569-1.921 0.489-3.026-0.093-1.038-0.399-1.98-0.918-2.826s-1.184-1.521-1.995-2.027c-0.811-0.506-1.722-0.759-2.733-0.759-1.051 0-1.992 0.273-2.823 0.819s-1.473 1.275-1.925 2.187c-0.452 0.912-0.632 1.927-0.539 3.046 0.106 1.025 0.439 1.961 0.998 2.806s1.267 1.521 2.125 2.027zM81.345 30.032h-4.868v-15.098h-2.953v-4.873h2.953v-6.271h4.868v6.271h3.871v4.873h-3.871v15.098zM101.686 29.723c0.898-0.553 1.626-1.275 2.185-2.167l0.199 2.477h4.888v-19.971h-4.868l0.219 2.556c-0.732-0.905-1.62-1.651-2.664-2.237s-2.231-0.879-3.562-0.879c-1.423 0-2.753 0.266-3.99 0.799s-2.328 1.271-3.272 2.217c-0.944 0.945-1.676 2.044-2.195 3.295s-0.778 2.59-0.778 4.014c0 1.478 0.273 2.863 0.818 4.154s1.31 2.43 2.294 3.415c0.984 0.985 2.122 1.758 3.412 2.317s2.674 0.839 4.15 0.839c1.21 0 2.265-0.276 3.162-0.829zM98.664 25.858c-0.984 0-1.906-0.253-2.763-0.759s-1.566-1.182-2.125-2.027c-0.559-0.846-0.891-1.781-0.998-2.806-0.093-1.118 0.086-2.134 0.539-3.046s1.094-1.641 1.925-2.187c0.831-0.546 1.772-0.819 2.823-0.819 1.011 0 1.922 0.253 2.734 0.759s1.477 1.182 1.995 2.027 0.825 1.787 0.918 2.826c0.080 1.105-0.083 2.114-0.489 3.026s-1.001 1.641-1.786 2.187c-0.785 0.546-1.709 0.819-2.773 0.819zM128.463 29.733c1.27-0.546 2.388-1.302 3.352-2.267s1.719-2.087 2.265-3.365 0.818-2.643 0.818-4.094c0-1.931-0.472-3.691-1.417-5.282s-2.215-2.859-3.811-3.805c-1.596-0.945-3.365-1.418-5.307-1.418-1.25 0-2.358 0.283-3.322 0.849s-1.772 1.301-2.424 2.207v-12.482h-4.868v29.957h4.868v-2.536c0.652 0.905 1.46 1.641 2.424 2.207s2.072 0.849 3.322 0.849c1.463 0 2.83-0.273 4.1-0.819zM124.302 25.838c-1.011 0-1.915-0.26-2.713-0.779s-1.423-1.221-1.876-2.107c-0.452-0.885-0.678-1.867-0.678-2.946 0-1.052 0.226-2.020 0.678-2.906s1.077-1.591 1.876-2.117c0.798-0.526 1.703-0.789 2.713-0.789 1.024 0 1.962 0.26 2.813 0.779s1.53 1.222 2.035 2.107c0.505 0.886 0.758 1.861 0.758 2.926 0 1.078-0.253 2.057-0.758 2.936s-1.181 1.581-2.025 2.107c-0.845 0.526-1.786 0.789-2.823 0.789zM142.729 6.376c-0.486 0.473-1.081 0.709-1.786 0.709s-1.303-0.236-1.796-0.709-0.738-1.068-0.738-1.787c0-0.706 0.246-1.298 0.738-1.777s1.091-0.719 1.796-0.719c0.705 0 1.3 0.24 1.786 0.719s0.728 1.072 0.728 1.777c0 0.719-0.243 1.315-0.728 1.787zM169.896 14.704c0.704 0 1.3-0.236 1.786-0.709 0.485-0.473 0.728-1.068 0.728-1.787 0-0.706-0.244-1.298-0.728-1.777-0.486-0.479-1.082-0.719-1.786-0.719-0.706 0-1.304 0.24-1.797 0.719s-0.738 1.072-0.738 1.777c0 0.719 0.245 1.315 0.738 1.787s1.091 0.709 1.797 0.709zM17.139 26.708c-1.926 1.875-4.288 2.813-7.085 2.813s-5.172-0.938-7.125-2.813c-1.953-1.875-2.929-4.239-2.929-7.092 0-2.8 0.976-5.15 2.929-7.052s4.328-2.853 7.125-2.853c2.797 0 5.159 0.951 7.085 2.853s2.889 4.252 2.889 7.052c0 2.853-0.963 5.217-2.889 7.092zM143.357 10.061h-4.868v19.971h4.868v-19.971zM165.298 25.159v4.873h-17.039v-4.873l10.036-10.225h-10.036v-4.873h17.039v4.873l-10.016 10.225h10.016z"></path>
</symbol>
<symbol id="icon-audio-file-logo" viewBox="0 0 66 32">
<path d="M20.783 16.75c3.357 0 5.756 2.42 5.756 5.829s-2.399 5.84-5.756 5.84c-0.993-0-1.901-0.26-2.676-0.727v4.307h-3.738v-14.891h2.571l0.474 0.869c0.846-0.729 1.92-1.17 3.126-1.222l0.243-0.005zM59.029 16.75c3.538 0 5.988 2.516 5.988 5.726 0 0.329-0.029 0.659-0.078 0.997h-8.151c0.247 1.255 1.047 1.904 2.241 1.904 0.883-0 1.621-0.386 1.984-1.026h3.763c-0.772 2.497-2.993 4.057-5.747 4.057-3.425 0-5.963-2.495-5.963-5.838 0-3.354 2.517-5.82 5.963-5.82zM39.329 15.595h-2.798l-0.357-0.812c-0.893 0.749-2.032 1.182-3.311 1.182-0.276 0-0.546-0.018-0.809-0.050v1.913c0.808-0.649 1.837-1.043 2.931-1.043 2.52 0 4.14 1.84 4.14 4.676v6.589h-3.781v-6.15c0-1.262-0.445-1.905-1.431-1.905-1.144 0-1.858 0.809-1.858 2.213v5.842h-3.78v-14.241c-0.749-0.982-1.179-2.246-1.179-3.683 0-3.4 2.4-5.829 5.768-5.829 1.013 0 1.941 0.273 2.727 0.76v-4.352h3.738v14.891zM45.168 28.049h-3.781v-10.941h3.781v10.941zM53.375 4.297c3.568 0 6.155 2.438 6.155 5.829-0 3.38-2.587 5.829-6.155 5.829-0.729 0-1.416-0.104-2.049-0.294v12.389h-3.78v-14.892h0.488c-0.522-0.868-0.813-1.897-0.813-3.032 0-3.391 2.576-5.829 6.154-5.829zM20.277 20.075c-1.416 0-2.457 1.067-2.457 2.504s1.041 2.503 2.457 2.503c1.407 0 2.457-1.066 2.457-2.503s-1.041-2.504-2.457-2.504zM59.029 19.703c-1.102 0-1.868 0.597-2.175 1.683h4.438c-0.332-1.093-1.122-1.683-2.263-1.683zM5.884 4.313c1.293 0 2.448 0.43 3.354 1.175l0.387-0.846h2.818v10.941h-2.923l-0.324-0.774c-0.899 0.726-2.038 1.144-3.313 1.144-3.357 0-5.756-2.44-5.756-5.84 0-3.388 2.4-5.8 5.756-5.8zM18.464 10.735c0 1.155 0.623 1.833 1.634 1.833s1.621-0.69 1.621-1.833v-6.080h3.781v6.244c-0 3.061-2.16 5.055-5.402 5.055s-5.415-1.994-5.415-5.055v-6.244h3.781v6.080zM45.482 15.595h-0.344v0.144h-3.723v-3.198h0.285v-7.887h3.781v10.941zM33.369 7.622c-1.416 0-2.457 1.075-2.457 2.503s1.041 2.504 2.457 2.504c1.416-0 2.457-1.076 2.457-2.504s-1.041-2.503-2.457-2.503zM6.389 7.635c-1.425 0-2.456 1.067-2.457 2.487 0 1.428 1.041 2.495 2.457 2.495s2.457-1.066 2.457-2.495c-0-1.42-1.041-2.487-2.457-2.487zM53.375 7.682c-1.379 0-2.367 0.997-2.367 2.444s0.989 2.443 2.367 2.444c1.379 0 2.368-0.997 2.368-2.444-0-1.438-0.989-2.444-2.368-2.444zM62.050 4.532c0.411 0 0.758 0.14 1.042 0.419s0.424 0.626 0.424 1.037c-0 0.419-0.141 0.767-0.424 1.043s-0.631 0.413-1.042 0.413c-0.411 0-0.761-0.138-1.048-0.413s-0.431-0.623-0.431-1.043c0-0.412 0.143-0.758 0.431-1.037s0.637-0.419 1.048-0.419zM45.452 3.286h-3.723v-3.198h3.723v3.198z"></path>
</symbol>
</defs>
</svg>
